<svg width="100" height="100" viewBox="0 0 100 100" fill="none"
	xmlns="http://www.w3.org/2000/svg">
	<g opacity="0.1">
		<line x1="15.5" y1="0" x2="15.5" y2="100" stroke="oklch(0.552 0.016 285.938)" />
		<line x1="25.5" y1="0" x2="25.5" y2="100" stroke="oklch(0.552 0.016 285.938)" />
		<line x1="35.5" y1="0" x2="35.5" y2="100" stroke="oklch(0.552 0.016 285.938)" />
		<line x1="45.5" y1="0" x2="45.5" y2="100" stroke="oklch(0.552 0.016 285.938)" />
		<line x1="55.5" y1="0" x2="55.5" y2="100" stroke="oklch(0.552 0.016 285.938)" />
		<line x1="65.5" y1="0" x2="65.5" y2="100" stroke="oklch(0.552 0.016 285.938)" />
		<line x1="75.5" y1="0" x2="75.5" y2="100" stroke="oklch(0.552 0.016 285.938)" />
		<line x1="85.5" y1="0" x2="85.5" y2="100" stroke="oklch(0.552 0.016 285.938)" />
		<line x1="95.5" y1="0" x2="95.5" y2="100" stroke="oklch(0.552 0.016 285.938)" />
		<line y1="15.5" x2="100" y2="15.5" stroke="oklch(0.552 0.016 285.938)" />
		<line y1="25.5" x2="100" y2="25.5" stroke="oklch(0.552 0.016 285.938)" />
		<line y1="35.5" x2="100" y2="35.5" stroke="oklch(0.552 0.016 285.938)" />
		<line y1="45.5" x2="100" y2="45.5" stroke="oklch(0.552 0.016 285.938)" />
		<line y1="55.5" x2="100" y2="55.5" stroke="oklch(0.552 0.016 285.938)" />
		<line y1="65.5" x2="100" y2="65.5" stroke="oklch(0.552 0.016 285.938)" />
		<line y1="75.5" x2="100" y2="75.5" stroke="oklch(0.552 0.016 285.938)" />
		<line y1="85.5" x2="100" y2="85.5" stroke="oklch(0.552 0.016 285.938)" />
		<line y1="95.5" x2="100" y2="95.5" stroke="oklch(0.552 0.016 285.938)" />
	</g>
	<g opacity="0.3">
		<line y1="5.5" x2="100" y2="5.5" stroke="oklch(0.552 0.016 285.938)" />
		<line x1="5.5" y1="0" x2="5.5" y2="100" stroke="oklch(0.552 0.016 285.938)" />
	</g>
</svg>