<svg width="350" height="350" viewBox="0 0 350 350" fill="none" xmlns="http://www.w3.org/2000/svg">
<path d="M324.83 282.514C324.83 284.656 324.447 286.645 323.682 288.481C322.917 290.317 321.846 291.923 320.469 293.3C319.169 294.601 317.601 295.633 315.765 296.398C313.929 297.163 311.94 297.546 309.798 297.546H202.166C199.412 297.546 196.429 297.24 193.216 296.628C190.08 295.939 186.943 294.907 183.807 293.53C180.747 292.153 177.802 290.393 174.971 288.251C172.141 286.033 169.616 283.394 167.398 280.334C165.256 277.198 163.535 273.602 162.234 269.548C160.934 265.417 160.284 260.789 160.284 255.664V174.882C160.284 172.128 160.59 169.183 161.202 166.047C161.89 162.834 162.923 159.698 164.3 156.638C165.677 153.501 167.475 150.518 169.693 147.688C171.911 144.857 174.551 142.371 177.61 140.229C180.747 138.011 184.342 136.251 188.397 134.951C192.451 133.65 197.041 133 202.166 133H319.453C321.662 133 323.453 134.791 323.453 137V158.834C323.453 161.043 321.662 162.834 319.453 162.834H202.166C198.265 162.834 195.281 163.867 193.216 165.932C191.15 167.998 190.118 171.057 190.118 175.112V255.664C190.118 259.488 191.15 262.472 193.216 264.614C195.358 266.679 198.341 267.712 202.166 267.712H290.996C293.205 267.712 294.996 265.921 294.996 263.712V234.305C294.996 232.096 293.205 230.305 290.996 230.305H219.591C217.382 230.305 215.591 228.514 215.591 226.305V204.241C215.591 202.032 217.382 200.241 219.591 200.241H309.798C311.94 200.241 313.929 200.662 315.765 201.503C317.601 202.268 319.169 203.339 320.469 204.716C321.846 206.093 322.917 207.7 323.682 209.536C324.447 211.295 324.83 213.208 324.83 215.273V282.514Z" fill="url(#paint0_linear_1_3)"/>
<path d="M190 212C190 214.209 188.209 216 186 216H164.5C162.291 216 160.5 214.209 160.5 212V179.743C160.5 177.534 158.709 175.743 156.5 175.743H58.9163C56.7072 175.743 54.9163 177.534 54.9163 179.743V212C54.9163 214.209 53.1255 216 50.9163 216H29C26.7909 216 25 214.209 25 212V134C25 122.03 27.0711 111.013 31.2134 100.948C35.3556 90.8842 41.1088 82.2306 48.4728 74.9874C55.8368 67.7443 64.5432 62.1023 74.592 58.0614C84.6409 54.0205 95.6102 52 107.5 52H174.927C176.998 52 178.954 52.3812 180.795 53.1437C182.636 53.9061 184.247 54.9735 185.628 56.3459C187.008 57.7183 188.082 59.3194 188.849 61.1492C189.616 62.9791 190 64.9233 190 66.9819V212ZM54.9163 142.008C54.9163 144.218 56.7072 146.008 58.9163 146.008H156.5C158.709 146.008 160.5 144.218 160.5 142.008V85.735C160.5 83.5259 158.709 81.735 156.5 81.735H107.5C106.579 81.735 104.623 81.8875 101.632 82.1925C98.7169 82.4212 95.3033 83.0693 91.3912 84.1367C87.5558 85.2041 83.4902 86.8433 79.1946 89.0544C74.8989 91.2655 70.9484 94.3152 67.3431 98.2036C63.7378 102.092 60.7462 106.972 58.3682 112.842C56.0669 118.637 54.9163 125.689 54.9163 134V142.008Z" fill="url(#paint1_linear_1_3)"/>
<defs>
<linearGradient id="paint0_linear_1_3" x1="25" y1="175" x2="325" y2="175" gradientUnits="userSpaceOnUse">
<stop stop-color="#FFB900"/>
<stop offset="1" stop-color="#FE9A00"/>
</linearGradient>
<linearGradient id="paint1_linear_1_3" x1="25" y1="175" x2="325" y2="175" gradientUnits="userSpaceOnUse">
<stop stop-color="#FFB900"/>
<stop offset="1" stop-color="#FE9A00"/>
</linearGradient>
</defs>
</svg>
